<?xml version="1.0" encoding="utf-8"?>
<!-- Generator: Adobe Illustrator 27.7.0, SVG Export Plug-In . SVG Version: 6.00 Build 0)  -->
<svg version="1.1" id="Layer_1" xmlns="http://www.w3.org/2000/svg" xmlns:xlink="http://www.w3.org/1999/xlink" x="0px" y="0px"
	 viewBox="0 0 40 40" style="enable-background:new 0 0 40 40;" xml:space="preserve">
<style type="text/css">
	.st0{fill:#BBF7D0;}
	.st1{fill:#4ADE80;}
	.st2{fill:#22C55E;}
</style>
<g>
	<path class="st0" d="M38.2,19.8l-4-5.4c-1-1.3-2.5-2-4-2h-3.4v16.8c0,1-0.7,1.7-1.7,1.7h11.8c1,0,1.7-0.7,1.7-1.7v-8.4
		C38.5,20.5,38.4,20.2,38.2,19.8z"/>
	<path class="st1" d="M25.1,30.9H3.2c-1,0-1.7-0.7-1.7-1.7V9.1C1.5,6.2,3.7,4,6.5,4h15.2c2.9,0,5.1,2.2,5.1,5.1v20.2
		C26.7,30.3,26.1,30.9,25.1,30.9z"/>
	<path class="st2" d="M26.7,20.8h11.8c0-0.3-0.2-0.7-0.3-1l-4-5.4c-1-1.3-2.5-2-4-2h-3.4V20.8z"/>
	<circle class="st2" cx="9.9" cy="30.9" r="5.1"/>
	<circle class="st2" cx="30.1" cy="30.9" r="5.1"/>
</g>
</svg>
