<?xml version="1.0" encoding="utf-8"?>
<!-- Generator: Adobe Illustrator 27.7.0, SVG Export Plug-In . SVG Version: 6.00 Build 0)  -->
<svg version="1.1" id="Layer_1" xmlns="http://www.w3.org/2000/svg" xmlns:xlink="http://www.w3.org/1999/xlink" x="0px" y="0px"
	 viewBox="0 0 40 40" style="enable-background:new 0 0 40 40;" xml:space="preserve">
<style type="text/css">
	.st0{fill:#4ADE80;}
	.st1{fill:#22C55E;}
	.st2{fill:#BBF7D0;}
</style>
<g>
	<path class="st0" d="M37.9,13.2l-3.6,14.4H5.7L2.1,13.2c-0.2-1,0.3-1.9,1.3-2.2c0.4-0.1,0.9-0.1,1.3,0.2l6.9,3.5l7-10.2
		c0.6-0.8,1.8-1,2.6-0.4c0.1,0.1,0.2,0.2,0.4,0.4l7,10.2l6.9-3.5c0.9-0.5,2-0.1,2.4,0.8C38,12.3,38.1,12.8,37.9,13.2z"/>
	<path class="st1" d="M34.3,27.6H5.7l-0.1-0.2v7c0,1,0.8,1.8,1.8,1.8c0,0,0,0,0,0h25.2c1,0,1.8-0.8,1.8-1.8c0,0,0,0,0,0v-7
		L34.3,27.6z"/>
	<circle class="st2" cx="20" cy="19" r="1.7"/>
</g>
</svg>
