<?xml version="1.0" encoding="utf-8"?>
<!-- Generator: Adobe Illustrator 27.7.0, SVG Export Plug-In . SVG Version: 6.00 Build 0)  -->
<svg version="1.1" id="Layer_1" xmlns="http://www.w3.org/2000/svg" xmlns:xlink="http://www.w3.org/1999/xlink" x="0px" y="0px"
	 viewBox="0 0 40 40" style="enable-background:new 0 0 40 40;" xml:space="preserve">
<style type="text/css">
	.st0{fill:#22C55E;}
	.st1{fill:#FF0000;}
	.st2{fill:#4ADE80;}
	.st3{fill:#BBF7D0;}
</style>
<g>
	<path class="st0" d="M20,2c-4.7,0-9.2,1.9-12.6,5.2V3.8c0-1-0.8-1.8-1.8-1.8S3.8,2.8,3.8,3.8v8.1c0,1,0.8,1.8,1.8,1.8h8.1
		c1,0,1.8-0.8,1.8-1.8c0-1-0.8-1.8-1.8-1.8H9.6c5.5-5.7,14.6-5.9,20.3-0.4s5.9,14.6,0.4,20.3S15.8,35.9,10,30.4
		C7.2,27.7,5.6,23.9,5.6,20c0-1-0.8-1.8-1.8-1.8S2,19,2,20c0,9.9,8.1,18,18,18s18-8.1,18-18S29.9,2,20,2z"/>
	<path class="st1" d="M23.6,21.8H20c-1,0-1.8-0.8-1.8-1.8v-5.4c0-1,0.8-1.8,1.8-1.8s1.8,0.8,1.8,1.8v3.6h1.8c1,0,1.8,0.8,1.8,1.8
		S24.6,21.8,23.6,21.8z"/>
	<path class="st2" d="M20,5.6c-3.9,0-7.7,1.6-10.4,4.5h4.1c1,0,1.8,0.8,1.8,1.8c0,1-0.8,1.8-1.8,1.8H5.6c-0.9,0-1.7-0.7-1.8-1.6
		C2.6,14.6,2,17.3,2,20c0-1,0.8-1.8,1.8-1.8S5.6,19,5.6,20c0,8,6.4,14.4,14.4,14.4S34.4,28,34.4,20S28,5.6,20,5.6z"/>
	<path class="st3" d="M23.6,21.8H20c-1,0-1.8-0.8-1.8-1.8v-5.4c0-1,0.8-1.8,1.8-1.8s1.8,0.8,1.8,1.8v3.6h1.8c1,0,1.8,0.8,1.8,1.8
		S24.6,21.8,23.6,21.8z"/>
</g>
</svg>
