<?xml version="1.0" encoding="utf-8"?>
<!-- Generator: Adobe Illustrator 27.7.0, SVG Export Plug-In . SVG Version: 6.00 Build 0)  -->
<svg version="1.1" id="Layer_1" xmlns="http://www.w3.org/2000/svg" xmlns:xlink="http://www.w3.org/1999/xlink" x="0px" y="0px"
	 viewBox="0 0 40 40" style="enable-background:new 0 0 40 40;" xml:space="preserve">
<style type="text/css">
	.st0{fill:#4ADE80;}
	.st1{fill:#BBF7D0;}
	.st2{fill:#22C55E;}
</style>
<g>
	<circle class="st0" cx="20" cy="14.7" r="12.7"/>
	<path class="st1" d="M36,31.1l-5.4-9.4c-2.3,3.4-6.2,5.7-10.6,5.7c-0.3,0-0.5,0-0.8,0l0.8,1.4l0,0l5,8.7c0.3,0.5,0.9,0.7,1.4,0.4
		c0.1-0.1,0.3-0.2,0.4-0.4l2.8-4.7l5.5-0.1c0.6,0,1-0.5,1-1.1C36.1,31.5,36.1,31.3,36,31.1z"/>
	<path class="st2" d="M19.2,27.4c-4.1-0.2-7.7-2.4-9.8-5.7L4,31.1c-0.3,0.5-0.1,1.2,0.4,1.4c0.1,0.1,0.3,0.1,0.5,0.1l5.5,0.1
		l2.8,4.7c0.3,0.5,1,0.7,1.5,0.4c0.1-0.1,0.3-0.2,0.4-0.4l5-8.7l0,0L19.2,27.4z"/>
</g>
</svg>
